<svg width="25" height="25" viewBox="0 0 25 25" fill="none" xmlns="http://www.w3.org/2000/svg">
<path fill-rule="evenodd" clip-rule="evenodd" d="M12.558 1.69663e-07C14.9125 -1.02994e-05 16.7582 -1.86265e-05 18.2225 0.158626C19.7167 0.320521 20.9275 0.656826 21.9612 1.40789C22.5871 1.86258 23.1374 2.41294 23.5921 3.03876C24.3432 4.07251 24.6795 5.28326 24.8414 6.77753C25 8.24179 25 10.0874 25 12.4419V12.558C25 14.9125 25 16.7582 24.8414 18.2225C24.6795 19.7167 24.3432 20.9275 23.5921 21.9612C23.1594 22.5569 22.6399 23.0841 22.0513 23.5256C22.0387 23.5351 22.026 23.5445 22.0133 23.5539C21.9998 23.564 21.9862 23.5739 21.9726 23.5839L21.9612 23.5921C20.9275 24.3432 19.7167 24.6795 18.2225 24.8414C16.7582 25 14.9126 25 12.5581 25H12.442C10.0875 25 8.24178 25 6.77753 24.8414C5.28326 24.6795 4.07251 24.3432 3.03876 23.5921C3.01027 23.5714 2.98195 23.5505 2.9538 23.5294C2.36304 23.0872 1.84189 22.5586 1.40789 21.9612C0.656826 20.9275 0.320521 19.7167 0.158626 18.2225C-1.86265e-05 16.7582 -1.02994e-05 14.9125 1.69663e-07 12.558V12.442C-1.02994e-05 10.0875 -1.86265e-05 8.24181 0.158626 6.77753C0.320521 5.28326 0.656826 4.07251 1.40789 3.03876C1.86258 2.41294 2.41294 1.86258 3.03876 1.40789C4.07251 0.656826 5.28326 0.320521 6.77753 0.158626C8.24181 -1.86265e-05 10.0875 -1.02994e-05 12.442 1.69663e-07H12.558ZM21.3461 21.6114C20.8259 19.3304 18.7848 17.6282 16.3462 17.6282H8.65385C6.21521 17.6282 4.17414 19.3304 3.65394 21.6114C3.79762 21.7455 3.94861 21.8719 4.10632 21.99C4.12715 22.0056 4.14808 22.021 4.16912 22.0363C4.82041 22.5095 5.65402 22.7853 6.98467 22.9295C8.33332 23.0756 10.0749 23.0769 12.5 23.0769C14.9251 23.0769 16.6667 23.0756 18.0153 22.9295C19.346 22.7853 20.1796 22.5095 20.8309 22.0363C20.8532 22.0201 20.8754 22.0037 20.8974 21.9872C21.0538 21.8699 21.2035 21.7445 21.3461 21.6114ZM12.5 2.5641C9.13673 2.5641 6.41026 5.29057 6.41026 8.65385C6.41026 12.0171 9.13673 14.7436 12.5 14.7436C15.8633 14.7436 18.5897 12.0171 18.5897 8.65385C18.5897 5.29057 15.8633 2.5641 12.5 2.5641Z" fill="url(#paint0_linear_388_1795)"/>
<defs>
<linearGradient id="paint0_linear_388_1795" x1="0" y1="12.5" x2="25" y2="12.5" gradientUnits="userSpaceOnUse">
<stop stop-color="#FF758C"/>
<stop offset="1" stop-color="#FF7EB3"/>
</linearGradient>
</defs>
</svg>
