<svg width="16" height="17" viewBox="0 0 16 17" fill="none" xmlns="http://www.w3.org/2000/svg">
<path d="M0 3.5C0 2.56812 0 2.10218 0.152241 1.73463C0.355229 1.24458 0.744577 0.855229 1.23463 0.652241C1.60218 0.5 2.06812 0.5 3 0.5C3.93188 0.5 4.39782 0.5 4.76537 0.652241C5.25542 0.855229 5.64477 1.24458 5.84776 1.73463C6 2.10218 6 2.56812 6 3.5C6 4.43188 6 4.89782 5.84776 5.26537C5.64477 5.75542 5.25542 6.14477 4.76537 6.34776C4.39782 6.5 3.93188 6.5 3 6.5C2.06812 6.5 1.60218 6.5 1.23463 6.34776C0.744577 6.14477 0.355229 5.75542 0.152241 5.26537C0 4.89782 0 4.43188 0 3.5Z" fill="#333333"/>
<path d="M10 3.5C10 2.56812 10 2.10218 10.1522 1.73463C10.3552 1.24458 10.7446 0.855229 11.2346 0.652241C11.6022 0.5 12.0681 0.5 13 0.5C13.9319 0.5 14.3978 0.5 14.7654 0.652241C15.2554 0.855229 15.6448 1.24458 15.8478 1.73463C16 2.10218 16 2.56812 16 3.5C16 4.43188 16 4.89782 15.8478 5.26537C15.6448 5.75542 15.2554 6.14477 14.7654 6.34776C14.3978 6.5 13.9319 6.5 13 6.5C12.0681 6.5 11.6022 6.5 11.2346 6.34776C10.7446 6.14477 10.3552 5.75542 10.1522 5.26537C10 4.89782 10 4.43188 10 3.5Z" fill="#333333"/>
<path d="M0 13.5C0 12.5681 0 12.1022 0.152241 11.7346C0.355229 11.2446 0.744577 10.8552 1.23463 10.6522C1.60218 10.5 2.06812 10.5 3 10.5C3.93188 10.5 4.39782 10.5 4.76537 10.6522C5.25542 10.8552 5.64477 11.2446 5.84776 11.7346C6 12.1022 6 12.5681 6 13.5C6 14.4319 6 14.8978 5.84776 15.2654C5.64477 15.7554 5.25542 16.1448 4.76537 16.3478C4.39782 16.5 3.93188 16.5 3 16.5C2.06812 16.5 1.60218 16.5 1.23463 16.3478C0.744577 16.1448 0.355229 15.7554 0.152241 15.2654C0 14.8978 0 14.4319 0 13.5Z" fill="#333333"/>
<path d="M10 13.5C10 12.5681 10 12.1022 10.1522 11.7346C10.3552 11.2446 10.7446 10.8552 11.2346 10.6522C11.6022 10.5 12.0681 10.5 13 10.5C13.9319 10.5 14.3978 10.5 14.7654 10.6522C15.2554 10.8552 15.6448 11.2446 15.8478 11.7346C16 12.1022 16 12.5681 16 13.5C16 14.4319 16 14.8978 15.8478 15.2654C15.6448 15.7554 15.2554 16.1448 14.7654 16.3478C14.3978 16.5 13.9319 16.5 13 16.5C12.0681 16.5 11.6022 16.5 11.2346 16.3478C10.7446 16.1448 10.3552 15.7554 10.1522 15.2654C10 14.8978 10 14.4319 10 13.5Z" fill="#333333"/>
</svg>
