<svg width="16" height="17" viewBox="0 0 16 17" fill="none" xmlns="http://www.w3.org/2000/svg">
<path d="M13.2627 5.17958C10.8669 3.97405 7.8719 4.37242 5.87215 6.37469C3.92186 8.32743 3.49519 11.228 4.59213 13.5955C4.43982 13.5216 4.28904 13.4389 4.14019 13.3468C3.9924 13.2553 3.91851 13.2096 3.86264 13.1874C3.75582 13.1451 3.6748 13.1328 3.56025 13.1417C3.50034 13.1463 3.43246 13.1639 3.29673 13.1992C2.44242 13.4209 2.01523 13.5317 1.70749 13.469C1.17339 13.3602 0.755967 12.9423 0.647269 12.4075C0.584642 12.0994 0.695355 11.6717 0.916782 10.8163C0.95198 10.6803 0.969578 10.6123 0.97419 10.5522C0.982979 10.4374 0.970489 10.3554 0.927979 10.2485C0.905675 10.1924 0.860078 10.119 0.768886 9.97205C-0.877836 7.31892 0.396578 4.10251 2.0052 2.49186C4.65767 -0.163952 8.95817 -0.163952 11.6106 2.49186C12.3908 3.27301 12.9415 4.19691 13.2627 5.17958Z" fill="#333333"/>
<path fill-rule="evenodd" clip-rule="evenodd" d="M12.5902 15.8797C10.4033 17.2329 7.70875 16.1329 6.43811 14.8607C4.25372 12.6735 4.25372 9.12749 6.43811 6.94035C8.62249 4.75322 12.1641 4.75322 14.3485 6.94035C15.6732 8.26677 16.7227 10.9156 15.3666 13.1005C15.2915 13.2215 15.254 13.282 15.2356 13.3282C15.2006 13.4162 15.1903 13.4838 15.1975 13.5782C15.2013 13.6278 15.2158 13.6838 15.2448 13.7958C15.4272 14.5002 15.5183 14.8524 15.4668 15.1062C15.3773 15.5466 15.0335 15.8908 14.5936 15.9804C14.3402 16.032 13.9884 15.9407 13.2849 15.7582C13.1731 15.7291 13.1172 15.7146 13.0678 15.7108C12.9735 15.7035 12.9068 15.7136 12.8188 15.7485C12.7728 15.7667 12.712 15.8044 12.5902 15.8797ZM8.79982 10.9C8.79982 11.3418 8.44164 11.7 7.99982 11.7C7.55799 11.7 7.19982 11.3418 7.19982 10.9C7.19982 10.4582 7.55799 10.1 7.99982 10.1C8.44164 10.1 8.79982 10.4582 8.79982 10.9ZM11.1998 10.9C11.1998 11.3418 10.8416 11.7 10.3998 11.7C9.95799 11.7 9.59982 11.3418 9.59982 10.9C9.59982 10.4582 9.95799 10.1 10.3998 10.1C10.8416 10.1 11.1998 10.4582 11.1998 10.9ZM12.7998 11.7C13.2416 11.7 13.5998 11.3418 13.5998 10.9C13.5998 10.4582 13.2416 10.1 12.7998 10.1C12.358 10.1 11.9998 10.4582 11.9998 10.9C11.9998 11.3418 12.358 11.7 12.7998 11.7Z" fill="#333333"/>
</svg>
