<svg width="16" height="17" viewBox="0 0 16 17" fill="none" xmlns="http://www.w3.org/2000/svg">
<path fill-rule="evenodd" clip-rule="evenodd" d="M7.64443 1.21113C3.42253 1.21113 0 4.63366 0 8.85557C0 13.0775 3.42253 16.5 7.64443 16.5C11.8663 16.5 15.2889 13.0775 15.2889 8.85557C15.2889 4.63366 11.8663 1.21113 7.64443 1.21113ZM8.17777 6.01112C8.17777 5.71657 7.93899 5.47779 7.64444 5.47779C7.34989 5.47779 7.1111 5.71657 7.1111 6.01112V9.00194C7.1111 9.22864 7.02449 9.44677 6.86898 9.61172L5.83416 10.7093C5.6321 10.9236 5.64203 11.2612 5.85635 11.4632C6.07067 11.6653 6.40821 11.6553 6.61027 11.441L7.64509 10.3434C7.98722 9.98056 8.17777 9.50067 8.17777 9.00194V6.01112Z" fill="#333333"/>
<path d="M3.35539 1.44982C3.58539 1.26581 3.62269 0.930188 3.43868 0.700182C3.25468 0.470176 2.91905 0.432885 2.68905 0.616889L0.911273 2.03911C0.681266 2.22311 0.643975 2.55874 0.82798 2.78874C1.01198 3.01875 1.34761 3.05604 1.57761 2.87204L3.35539 1.44982Z" fill="#333333"/>
<path d="M12.5998 0.616889C12.3698 0.432885 12.0342 0.470176 11.8502 0.700182C11.6662 0.930188 11.7035 1.26581 11.9335 1.44982L13.7113 2.87204C13.9413 3.05604 14.2769 3.01875 14.4609 2.78874C14.6449 2.55874 14.6076 2.22311 14.3776 2.03911L12.5998 0.616889Z" fill="#333333"/>
</svg>
