<svg width="16" height="17" viewBox="0 0 16 17" fill="none" xmlns="http://www.w3.org/2000/svg">
<path fill-rule="evenodd" clip-rule="evenodd" d="M8.03713 0.5C9.54403 0.499993 10.7252 0.499988 11.6624 0.601521C12.6187 0.705133 13.3936 0.920369 14.0552 1.40105C14.4557 1.69205 14.808 2.04428 15.099 2.44481C15.5796 3.10641 15.7949 3.88128 15.8985 4.83762C16 5.77474 16 6.95593 16 8.46279V8.53715C16 10.044 16 11.2253 15.8985 12.1624C15.7949 13.1187 15.5796 13.8936 15.099 14.5552C14.808 14.9557 14.4557 15.308 14.0552 15.599C13.3936 16.0796 12.6187 16.2949 11.6624 16.3985C10.7253 16.5 9.54407 16.5 8.03721 16.5H7.96285C6.45599 16.5 5.27474 16.5 4.33762 16.3985C3.38128 16.2949 2.60641 16.0796 1.94481 15.599C1.54428 15.308 1.19205 14.9557 0.901048 14.5552C0.420369 13.8936 0.205133 13.1187 0.101521 12.1624C-1.19209e-05 11.2252 -6.59159e-06 10.044 1.08585e-07 8.53713V8.46287C-6.59159e-06 6.95597 -1.19209e-05 5.77476 0.101521 4.83762C0.205133 3.88128 0.420369 3.10641 0.901048 2.44481C1.19205 2.04428 1.54428 1.69205 1.94481 1.40105C2.60641 0.920369 3.38128 0.705133 4.33762 0.601521C5.27476 0.499988 6.45597 0.499993 7.96287 0.5H8.03713ZM10.6151 5.88488C10.8554 6.1252 10.8554 6.51484 10.6151 6.75516L5.9736 11.3967C5.73328 11.637 5.34364 11.637 5.10332 11.3967C4.863 11.1564 4.863 10.7667 5.10332 10.5264L9.74484 5.88488C9.98516 5.64455 10.3748 5.64455 10.6151 5.88488ZM5.53846 6.85897C5.0853 6.85897 4.71795 6.49162 4.71795 6.03846C4.71795 5.5853 5.0853 5.21795 5.53846 5.21795C5.99162 5.21795 6.35897 5.5853 6.35897 6.03846C6.35897 6.49162 5.99162 6.85897 5.53846 6.85897ZM10.4615 11.7821C10.0084 11.7821 9.64103 11.4147 9.64103 10.9615C9.64103 10.5084 10.0084 10.141 10.4615 10.141C10.9147 10.141 11.2821 10.5084 11.2821 10.9615C11.2821 11.4147 10.9147 11.7821 10.4615 11.7821Z" fill="#333333"/>
</svg>
