<svg xmlns="http://www.w3.org/2000/svg" width="17" height="8" fill="none"><path fill="#646464" d="M16.684 1.859a1.09 1.09 0 1 0-1.55-1.536l-2.541 2.564C11.56 3.928 10.85 4.642 10.25 5.125c-.584.47-.96.63-1.296.673a2.514 2.514 0 0 1-.635 0c-.337-.043-.712-.204-1.296-.673C6.42 4.642 5.71 3.928 4.68 2.887L2.138.323a1.09 1.09 0 0 0-1.55 1.536l2.588 2.61c.975.984 1.771 1.787 2.48 2.357.739.593 1.488 1.022 2.387 1.136.394.05.793.05 1.187 0 .9-.114 1.648-.543 2.386-1.136.71-.57 1.506-1.373 2.48-2.357l2.588-2.61Z"/></svg>