<svg width="17" height="17" viewBox="0 0 17 17" fill="none" xmlns="http://www.w3.org/2000/svg">
<path fill-rule="evenodd" clip-rule="evenodd" d="M7.13943 1.5186C5.71682 0.574893 3.41932 -0.317493 1.43525 1.79841C-3.2746 6.82121 4.80237 16.5 8.49999 16.5C12.1976 16.5 20.2746 6.82121 15.5648 1.79841C13.5807 -0.31747 11.2832 0.574905 9.8606 1.51861C9.05677 2.05184 7.94326 2.05184 7.13943 1.5186ZM12.5324 2.54348C12.2032 2.41269 11.835 2.58567 11.71 2.92985C11.5849 3.27402 11.7503 3.65906 12.0794 3.78985C12.386 3.91169 12.7061 4.11813 13.0276 4.4515C13.4371 4.87607 13.6963 5.3414 13.8408 5.83132C13.9445 6.18316 14.3014 6.38043 14.6378 6.27193C14.9743 6.16344 15.1629 5.79026 15.0591 5.43842C14.8521 4.73616 14.4815 4.08133 13.9253 3.50466C13.4865 3.04972 13.0175 2.73627 12.5324 2.54348Z" fill="#333333"/>
</svg>
