<svg width="16" height="17" viewBox="0 0 16 17" fill="none" xmlns="http://www.w3.org/2000/svg">
<path fill-rule="evenodd" clip-rule="evenodd" d="M7.97716 16.3984C9.5451 15.5926 15.1475 12.3794 15.1475 7.60304C15.1475 3.34281 11.6131 0.502655 7.57374 0.502655C3.66974 0.502655 0 3.34281 0 7.60304C0 12.3794 5.60239 15.5926 7.17032 16.3984C7.42705 16.5303 7.72043 16.5303 7.97716 16.3984ZM7.35476 10.686L4.70532 7.89716C4.16537 7.32879 4.0809 6.46611 4.50037 5.8038C5.19894 4.70079 6.82588 4.7555 7.44878 5.90294L7.51469 6.02436C7.54012 6.0712 7.60736 6.0712 7.63279 6.02436L7.6987 5.90294C8.3216 4.7555 9.94854 4.70079 10.6471 5.8038C11.0666 6.46611 10.9821 7.32879 10.4422 7.89716L7.79272 10.686C7.71167 10.7714 7.67115 10.814 7.62307 10.8276C7.59081 10.8367 7.55667 10.8367 7.52441 10.8276C7.47633 10.814 7.43581 10.7714 7.35476 10.686Z" fill="#333333"/>
</svg>
