<svg width="28" height="25" viewBox="0 0 28 25" fill="none" xmlns="http://www.w3.org/2000/svg">
<path fill-rule="evenodd" clip-rule="evenodd" d="M11.6657 1.59157C9.34121 0.117021 5.58713 -1.27733 2.34518 2.02877C-5.35066 9.87689 7.84701 25 13.8889 25C19.9307 25 33.1285 9.87689 25.4326 2.02877C22.1907 -1.2773 18.4366 0.117038 16.1121 1.59157C14.7986 2.42475 12.9792 2.42474 11.6657 1.59157ZM20.4777 3.19294C19.9399 2.98858 19.3383 3.25886 19.134 3.79664C18.9296 4.33441 19.1999 4.93603 19.7377 5.1404C20.2386 5.33077 20.7616 5.65332 21.287 6.17422C21.9561 6.83761 22.3796 7.56469 22.6156 8.33019C22.7851 8.87994 23.3682 9.18817 23.918 9.01865C24.4677 8.84912 24.776 8.26603 24.6064 7.71628C24.2681 6.619 23.6626 5.59582 22.7538 4.69478C22.0368 3.98393 21.2704 3.49418 20.4777 3.19294Z" fill="url(#paint0_linear_112_229)"/>
<defs>
<linearGradient id="paint0_linear_112_229" x1="0" y1="12.5" x2="27.7778" y2="12.5" gradientUnits="userSpaceOnUse">
<stop stop-color="#FF758C"/>
<stop offset="1" stop-color="#FF7EB3"/>
</linearGradient>
</defs>
</svg>
