<svg width="47" height="50" viewBox="0 0 47 50" fill="none" xmlns="http://www.w3.org/2000/svg">
<g clip-path="url(#clip0_112_27)">
<path d="M21.074 9.8889C19.0443 11.3651 15.968 10.6032 14.192 8.15874C12.4161 5.7143 13.1772 4.76192 14.6519 2.09525C15.8729 -0.111098 19.7737 0.365092 21.5497 2.80954C23.3256 5.25398 23.1037 8.41271 21.074 9.8889Z" fill="#FF95D4"/>
<path d="M26.5446 9.20634C28.5743 10.6825 31.5554 9.52381 33.3314 7.09523C35.1074 4.66666 34.4414 4.07936 32.9667 1.41269C31.7457 -0.793655 27.829 -0.317464 26.0689 2.12698C24.2929 4.55555 24.5149 7.73015 26.5446 9.20634Z" fill="#FF95D4"/>
<path d="M12.0514 14.2222C13.8274 12.1587 13.2724 8.77777 10.8145 6.65078C8.35671 4.5238 7.23087 5.23808 4.23391 6.58729C1.76022 7.6984 1.91879 11.9682 4.37662 14.0952C6.83445 16.2222 10.2754 16.2698 12.0514 14.2222Z" fill="#FF95D4"/>
<path d="M34.9488 14.2222C33.1728 12.1587 33.7278 8.77777 36.1856 6.65079C38.6435 4.5238 39.7534 5.25396 42.7663 6.60317C45.24 7.71428 45.0814 11.9841 42.6235 14.1111C40.1657 16.2381 36.7248 16.2698 34.9488 14.2222Z" fill="#FF95D4"/>
<path d="M9.4191 18.6984C10.7669 20.8254 9.81552 23.8571 7.27841 25.4603C4.7413 27.0794 3.82159 26.254 1.25277 24.619C-0.872063 23.2698 -0.1585 19.3968 2.37861 17.7778C4.91572 16.1587 8.07126 16.5714 9.4191 18.6984Z" fill="#FF95D4"/>
<path d="M37.581 18.6984C36.2331 20.8254 37.2004 23.8571 39.7217 25.4603C42.2588 27.0794 43.1785 26.254 45.7473 24.619C47.8721 23.2698 47.1427 19.3968 44.6056 17.7778C42.0843 16.1587 38.9288 16.5714 37.581 18.6984Z" fill="#FF95D4"/>
<path d="M10.2277 5.23808C9.03846 5.23808 10.1326 9.66665 9.14946 12.8095C8.16633 15.9524 4.04352 34.1746 3.64709 35.5555C4.53508 39.3016 5.61336 41.8571 14.4615 43.8254C21.0422 45.7936 23.3097 49.1428 23.3097 49.1428C23.3097 49.1428 26.3542 45.1111 29.8903 44.3174C33.4264 43.5238 42.2746 42.254 42.9565 35.2698C41.2915 29.2698 36.6613 11.4603 36.7564 8.60316C36.8515 5.74602 36.36 5.06348 36.36 5.06348C36.36 5.06348 30.9528 5.4603 29.1768 10.9682C26.719 10.0793 20.4237 9.09522 17.2841 11.0635C15.5398 7.80951 13.3833 5.44443 10.2277 5.23808Z" fill="white"/>
<path d="M16.1424 11.5714C15.6984 11.7619 15.4446 11.8254 15.4446 11.8254C15.0482 9.26983 12.9868 6.1111 10.1326 5.63491C11.8134 5.39681 13.9065 5.95237 15.7776 8.36507C15.7142 8.53967 15.6666 8.73015 15.6349 8.92062C15.4605 9.92062 15.6825 10.873 16.1424 11.5714Z" fill="#8FC2FF"/>
<path d="M6.99291 24.7301C6.10492 28.0793 5.12179 35.2539 5.12179 35.2539C5.12179 35.2539 6.00978 39.5873 11.5121 41.1587C17.0145 42.7301 21.2483 46.873 21.2483 46.873C21.2483 46.873 15.0482 43.1428 9.35559 42.2539C3.64709 41.3651 3.75809 34.5714 3.75809 34.5714L6.99291 24.7301Z" fill="#8FC2FF"/>
<path d="M39.5155 24.7301C40.4035 28.0793 41.3867 35.2539 41.3867 35.2539C41.3867 35.2539 40.4987 39.5873 34.9963 41.1587C29.4939 42.7301 25.2601 46.873 25.2601 46.873C25.2601 46.873 31.4602 43.1428 37.1528 42.2539C42.8613 41.3651 42.7503 34.5714 42.7503 34.5714L39.5155 24.7301Z" fill="#8FC2FF"/>
<path d="M36.3758 5.6349C34.7901 5.90474 33.4582 6.99998 32.5067 8.34918C32.5067 8.30156 32.4909 8.23807 32.4909 8.19045C32.4275 7.76188 32.2689 7.34918 32.0627 6.96823C33.5533 5.74601 35.0914 5.4603 36.3758 5.6349Z" fill="#8FC2FF"/>
<path d="M23.9123 33.2698C24.388 33.0317 25.1016 32.5397 25.609 31.4603C25.6724 31.3175 25.6724 31.1429 25.609 30.9841C25.5456 30.8254 25.4187 30.7143 25.2602 30.6667C23.2305 30.0317 21.3435 30.6508 21.2642 30.6667C21.1056 30.7143 20.9788 30.8413 20.9154 31C20.8519 31.1587 20.8519 31.3333 20.9312 31.4762C20.9471 31.5238 21.3752 32.4286 22.5803 33.2698C22.5645 33.2698 22.6279 33.3016 22.6121 33.2857C22.4852 34.8095 21.9302 35.8254 21.0898 36.0952C20.4079 36.3175 19.5992 36 19.0442 35.2857C18.8381 35.0317 18.4892 34.9841 18.2355 35.1905C17.9818 35.381 17.9501 35.746 18.1404 36C18.8064 36.8413 19.7419 37.3175 20.6458 37.3175C20.9154 37.3175 21.1849 37.2698 21.4386 37.1905C21.8668 37.0476 22.6596 36.6508 23.2146 35.5397C23.7538 36.6508 24.5625 37.0476 24.9747 37.1905C25.2284 37.2698 25.498 37.3175 25.7676 37.3175C26.6873 37.3175 27.607 36.8413 28.273 36C28.4791 35.746 28.4316 35.381 28.1778 35.1905C27.9241 34.9841 27.5594 35.0317 27.3691 35.2857C26.8141 36 26.0054 36.3175 25.3236 36.0952C24.4832 35.8254 23.944 34.8254 23.8013 33.3333M21.7875 31.3651C21.7875 31.3651 22.6438 31.0794 23.722 31.1746C24.0392 31.2063 24.388 31.254 24.7369 31.3651C24.2612 32.3968 23.2305 32.8095 23.2305 32.8095C22.1839 32.1587 21.7875 31.3651 21.7875 31.3651Z" fill="#004995"/>
<path d="M20.3921 27.1746C20.6934 24.127 18.6954 22.8095 18.6003 22.7619C18.5369 22.7143 18.4734 22.6984 18.3942 22.6825C17.4586 22.5079 16.3169 22.5556 15.3813 22.8413C13.5578 23.381 12.5429 24.6667 12.5271 26.3492C11.9562 25.9048 11.6074 25.3492 11.3537 24.7143C11.2427 24.4127 10.9097 24.2698 10.6084 24.381C10.3071 24.4921 10.1644 24.8254 10.2754 25.127C11.2268 27.6032 13.2565 28.6349 17.4903 28.6349C18.2197 28.6349 19.0284 28.6032 19.8847 28.5397C20.2018 28.5238 20.4397 28.2381 20.4238 27.9206C20.408 27.8095 20.3763 27.6984 20.3128 27.6191C20.3446 27.4762 20.3763 27.3175 20.3921 27.1746ZM13.7322 26.9841C13.3992 25.0635 14.6202 24.2698 15.7143 23.9524C16.4596 23.7302 17.3159 23.6667 18.0612 23.7937C18.3624 24.0318 19.4407 25.0318 19.2346 27.0635C19.2187 27.1905 19.2029 27.3175 19.187 27.4445C16.6182 27.5714 14.9056 27.3968 13.7322 26.9841Z" fill="#004995"/>
<path d="M35.8684 24.381C35.5671 24.2699 35.2341 24.4127 35.1231 24.7143C34.8694 25.3651 34.5206 25.9206 33.9497 26.3492C33.9339 24.6667 32.919 23.381 31.0955 22.8413C30.1441 22.5556 29.0182 22.4921 28.0668 22.6825C28.0034 22.6984 27.9241 22.7302 27.8607 22.7619C27.7814 22.8095 25.7675 24.127 26.0688 27.1746C26.0847 27.3175 26.1005 27.4762 26.1323 27.6191C26.0688 27.6984 26.0213 27.8095 26.0213 27.9206C26.0054 28.2381 26.2433 28.5238 26.5604 28.5397C27.4325 28.6032 28.2254 28.6349 28.9548 28.6349C33.1886 28.6349 35.2341 27.6032 36.1697 25.127C36.3124 24.8254 36.1697 24.4921 35.8684 24.381ZM27.2898 27.4286C27.274 27.3016 27.2581 27.1746 27.2422 27.0476C27.0361 25.0159 28.1144 24.0318 28.4157 23.7778C29.1609 23.6508 30.0331 23.7143 30.7625 23.9365C31.8566 24.2699 33.0776 25.0476 32.7446 26.9683C31.5712 27.3968 29.8586 27.5714 27.2898 27.4286Z" fill="#004995"/>
<path d="M26.1957 10.9048C25.9895 10.5238 25.8151 10.1111 25.72 9.6508C25.0064 9.55556 24.2611 9.49207 23.4524 9.49207C23.4366 9.49207 23.4207 9.49207 23.4049 9.49207C23.3573 9.49207 23.2939 9.49207 23.2463 9.49207C23.1987 9.49207 23.1353 9.49207 23.0877 9.49207C23.0719 9.49207 23.056 9.49207 23.0402 9.49207C22.4217 9.50794 21.8509 9.53968 21.28 9.60318C21.2642 9.68254 21.2642 9.76191 21.2483 9.84127C21.1849 10.1746 21.1056 10.5079 20.9629 10.7937C21.6765 10.6984 22.4217 10.6508 23.2463 10.6349C24.3246 10.6508 25.3077 10.746 26.1957 10.9048Z" fill="#004995"/>
<path d="M30.6674 12.5238C30.6991 12.5397 30.7308 12.5714 30.7784 12.5873C31.3016 12.9841 31.8725 13.3016 32.3799 13.7143C32.4116 13.746 32.4592 13.7778 32.4909 13.8095C32.5543 13.8571 32.6178 13.9206 32.6812 13.9683C32.7446 14.0318 32.8239 14.0794 32.8873 14.1429C32.9666 14.2064 33.0459 14.2857 33.1093 14.3492C33.1569 14.3968 33.2045 14.4444 33.252 14.4762C33.3472 14.5556 33.4265 14.6508 33.5216 14.7302C33.5533 14.7619 33.585 14.7937 33.6168 14.8254C33.7278 14.9365 33.8546 15.0635 33.9656 15.1746C34.0766 15.2857 34.2352 15.3492 34.3779 15.3492C34.5206 15.3492 34.6633 15.3016 34.7743 15.1905C35.0122 14.9683 35.0122 14.6032 34.7902 14.381C34.584 14.1746 34.3779 13.9524 34.1559 13.746C34.1559 13.6667 34.1559 13.6032 34.14 13.5238C34.14 13.5079 33.5216 11.4286 34.5206 9.09524C34.6475 8.80953 34.5047 8.46032 34.2193 8.33334C33.918 8.20636 33.585 8.34921 33.4582 8.63493C32.9666 9.77778 32.8239 10.873 32.808 11.746C32.808 11.8254 32.808 11.8889 32.808 11.9683C32.808 12.1746 32.8239 12.381 32.8398 12.5556C32.4909 12.2857 32.1103 11.9841 31.7139 11.7619C31.6822 11.746 31.6505 11.7143 31.6188 11.6984C31.6029 11.7143 31.5871 11.7302 31.5871 11.746C31.4126 11.9206 30.7784 12.4603 30.6674 12.5238C30.6832 12.5238 30.6832 12.5238 30.6674 12.5238Z" fill="#004995"/>
<path d="M12.305 13.7619C12.083 13.9683 11.8769 14.1905 11.6707 14.3968C11.4487 14.619 11.4646 15 11.6866 15.2063C11.7976 15.3175 11.9403 15.3651 12.083 15.3651C12.2416 15.3651 12.3843 15.3016 12.4953 15.1905C13.5102 14.127 14.8104 12.9841 16.5705 12.0952C16.2851 11.8413 16.0631 11.5079 15.8887 11.1429C15.0641 11.5714 14.3189 12.0635 13.6529 12.5873C13.7321 11.619 13.6687 10.1905 13.0186 8.66666C12.8917 8.38095 12.5587 8.23809 12.2575 8.36508C11.972 8.49206 11.8293 8.8254 11.9562 9.12698C12.9393 11.4444 12.3367 13.5397 12.3209 13.5556C12.305 13.619 12.305 13.6825 12.305 13.7619Z" fill="#004995"/>
<path d="M43.3847 35.1905C42.3698 31.5556 41.2281 26.8413 40.1181 22.2698C39.3887 19.2857 38.7069 16.4603 38.0884 14.0476C37.2005 10.6032 37.2797 8.88889 37.3273 7.63492C37.3749 6.69841 37.4066 5.95238 36.9785 5C36.8833 4.77778 36.6455 4.63492 36.4076 4.66667C34.5206 4.8254 32.9508 5.39682 31.6981 6.39682C31.9359 6.69841 32.1421 7.04762 32.2848 7.4127C33.2996 6.55555 34.5523 6.04762 36.0746 5.85714C36.2332 6.38095 36.2173 6.87301 36.1856 7.5873C36.1222 8.8254 36.0429 10.7143 36.9785 14.3333C37.5969 16.7302 38.2787 19.5556 39.0081 22.5397C40.1023 27.0635 41.244 31.746 42.2588 35.381C41.4025 40.6825 37.026 41.873 33.1728 42.9048C32.1579 43.1746 31.2065 43.4286 30.382 43.7619C28.5584 44.4762 24.7052 46.1587 23.2622 48.1111C21.9461 46.2698 18.521 44.7143 16.3486 43.873C15.5399 43.5556 14.5726 43.3016 13.5577 43.0159C9.78378 41.9841 5.09013 40.7143 4.23385 35.3968C5.23284 31.7619 6.37454 27.0794 7.48453 22.5556C8.21395 19.5714 8.8958 16.746 9.51422 14.3492C10.4498 10.7302 10.3705 8.84127 10.3071 7.60317C10.2754 6.88889 10.2595 6.39682 10.4181 5.87301C12.7332 6.15873 14.4299 7.19047 15.6191 9.03174C15.6191 9 15.635 8.96825 15.635 8.93651C15.6984 8.49206 15.8729 8.09524 16.1107 7.73016C14.6836 5.90476 12.6856 4.88889 10.1009 4.66667C9.86307 4.65079 9.62522 4.77778 9.53007 5C9.10194 5.95238 9.13365 6.69841 9.18122 7.63492C9.22879 8.88889 9.30808 10.5873 8.42009 14.0476C7.80167 16.4603 7.11982 19.2698 6.3904 22.2698C5.28041 26.8413 4.12285 31.5714 3.12387 35.1905C3.10801 35.2698 3.09215 35.3492 3.10801 35.4286C4.02771 41.6032 9.3715 43.0635 13.2882 44.1111C14.2713 44.381 15.2069 44.6349 15.9521 44.9206C20.7251 46.7778 22.5486 48.5397 22.6596 49.4762C22.6913 49.7619 22.9451 49.9841 23.2305 49.9841H23.2939C23.5793 49.9841 23.833 49.7619 23.8648 49.4762C23.9916 48.4603 26.1799 46.6349 30.8101 44.8254C31.5712 44.5238 32.4909 44.2698 33.4741 44.0159C37.2956 42.9841 42.5125 41.5714 43.4322 35.4127C43.4164 35.3651 43.4164 35.2698 43.3847 35.1905Z" fill="#004995"/>
<path d="M18.0611 23.7936C17.9025 23.6825 16.9035 23.6825 16.4595 23.746C15.746 23.8413 14.9055 24.2222 14.8262 24.3492C14.7311 24.4762 14.747 24.8254 14.747 24.9841C14.747 26.0476 15.3654 26.9841 16.2692 27.4603C16.3961 27.5238 19.1711 27.5397 19.1869 27.4603C19.2028 27.3333 19.2186 27.2063 19.2345 27.0794C19.4565 25.0476 18.4099 24.0317 18.0611 23.7936ZM16.2217 26.0952C15.8411 26.0952 15.5398 25.7936 15.5398 25.4127C15.5398 25.0317 15.8411 24.7302 16.2217 24.7302C16.6022 24.7302 16.9035 25.0317 16.9035 25.4127C16.9035 25.7936 16.6022 26.0952 16.2217 26.0952ZM17.6012 24.7302C17.3792 24.7302 17.2048 24.5555 17.2048 24.3333C17.2048 24.1111 17.3792 23.9365 17.6012 23.9365C17.8232 23.9365 17.9976 24.1111 17.9976 24.3333C17.9976 24.5555 17.8232 24.7302 17.6012 24.7302Z" fill="#05003B"/>
<path d="M31.6346 24.3492C31.6029 24.3016 31.5394 24.2698 31.4443 24.2222C30.5404 23.7619 29.3987 23.619 28.3998 23.7778C28.0985 24.0159 27.0043 25.0635 27.2105 27.0794C27.2263 27.2063 27.2422 27.3333 27.2581 27.4603C28.146 27.5079 29.0657 27.492 29.9537 27.4603C30.4612 27.4444 30.9369 26.9206 31.2064 26.5397C31.5394 26.0793 31.7139 25.5238 31.7139 24.9524C31.7139 24.7936 31.698 24.6508 31.6821 24.492C31.6821 24.4444 31.6663 24.3809 31.6346 24.3492ZM28.8755 24.7301C28.6535 24.7301 28.479 24.5555 28.479 24.3333C28.479 24.1111 28.6535 23.9365 28.8755 23.9365C29.0975 23.9365 29.2719 24.1111 29.2719 24.3333C29.2719 24.5555 29.0975 24.7301 28.8755 24.7301ZM30.255 26.0952C29.8744 26.0952 29.5732 25.7936 29.5732 25.4127C29.5732 25.0317 29.8744 24.7301 30.255 24.7301C30.6356 24.7301 30.9369 25.0317 30.9369 25.4127C30.9369 25.7936 30.6356 26.0952 30.255 26.0952Z" fill="#05003B"/>
<path d="M24.721 31.3651C24.2453 32.3968 23.2146 32.8095 23.2146 32.8095C22.4852 32.1428 22.5169 31.6032 22.5169 31.6032C22.5169 31.6032 23.0243 31.2698 23.7221 31.1905C24.0392 31.1905 24.388 31.254 24.721 31.3651Z" fill="#05003B"/>
<path d="M27.0045 7.9365C26.5922 8.65079 26.0372 9.22222 25.4029 9.61904C24.7845 9.53968 24.1344 9.49206 23.4367 9.49206C23.4208 9.49206 23.405 9.49206 23.3891 9.49206C23.3415 9.49206 23.2781 9.49206 23.2305 9.49206C23.183 9.49206 23.1195 9.49206 23.072 9.49206C23.0561 9.49206 23.0402 9.49206 23.0244 9.49206C22.517 9.49206 22.0254 9.5238 21.5497 9.57142C20.2018 8.49206 19.9323 6.33333 20.9788 4.49206C22.1205 2.49206 23.0244 2.73015 25.3395 2.92063C27.2582 3.07936 28.1462 5.95238 27.0045 7.9365Z" fill="#FFAB41"/>
<path d="M8.26151 14.5714C7.96023 15.746 7.64309 17 7.32595 18.3333C6.39039 18.8254 5.12183 18.8413 3.98013 18.254C2.26758 17.381 1.56988 14.9524 2.85429 13.9524C4.39241 12.7619 4.93155 12.1746 6.6441 13.0635C7.35766 13.4286 7.91266 13.9683 8.26151 14.5714Z" fill="#FFAB41"/>
<path d="M43.0199 18.2381C41.5928 18.9683 39.9754 18.7778 39.0398 17.8571C38.8178 16.9841 38.6117 16.1429 38.4055 15.3333C38.6592 14.4286 39.3411 13.5556 40.3559 13.0476C42.0685 12.1746 42.6076 12.746 44.1457 13.9365C45.4301 14.9365 44.7324 17.3651 43.0199 18.2381Z" fill="#FFAB41"/>
<path d="M29.7319 12.8572C27.8449 13.1587 26.0055 11.5714 25.6408 9.31747C25.2761 7.06351 26.1323 6.65081 28.0352 5.34922C29.6209 4.26986 32.1104 5.9524 32.4751 8.20636C32.8557 10.4603 31.6188 12.5397 29.7319 12.8572Z" fill="#FF7193"/>
<path d="M17.8867 12.746C19.4407 13 20.9471 11.6984 21.2484 9.84128C21.5496 7.98413 20.8519 7.6508 19.2821 6.58731C17.9818 5.69842 15.9363 7.07937 15.635 8.93652C15.3337 10.7937 16.3327 12.5079 17.8867 12.746Z" fill="#FF7193"/>
<path opacity="0.1" d="M21.3117 9.33331C21.3752 9.39681 21.4386 9.4603 21.5179 9.52379C21.4386 9.60315 21.3593 9.68252 21.2642 9.74601C21.28 9.60315 21.2959 9.4603 21.3117 9.33331Z" fill="black"/>
<path opacity="0.1" d="M21.8826 3.33332C21.5813 3.58728 21.28 3.96824 20.9787 4.50792C20.4396 5.44443 20.2652 6.4603 20.3762 7.36506C20.0749 7.12697 19.7102 6.88887 19.2662 6.58728C18.2672 5.90474 16.8401 6.55554 16.0948 7.73014C15.302 6.71427 14.3347 5.95236 13.1771 5.42855C13.2723 4.47617 13.859 3.53966 14.6518 2.09522C15.8728 -0.111129 19.7736 0.365062 21.5496 2.80951C21.6764 2.98411 21.7874 3.15871 21.8826 3.33332Z" fill="black"/>
<path opacity="0.1" d="M34.4413 5.01586C33.3947 5.31745 32.475 5.77777 31.6822 6.41269C30.7308 5.19047 29.1609 4.58729 28.0351 5.3492C27.8448 5.47618 27.6704 5.60317 27.4959 5.71428C27.4008 4.38094 26.6714 3.17459 25.5455 2.96824C25.6882 2.68253 25.8627 2.41269 26.053 2.14285C27.8289 -0.31747 31.7456 -0.793661 32.9666 1.41269C33.8229 2.98412 34.4571 3.96824 34.4413 5.01586Z" fill="black"/>
<path opacity="0.1" d="M8.38831 14.0476C8.34074 14.2222 8.29317 14.3968 8.26146 14.5714C7.9126 13.9682 7.35761 13.4127 6.64405 13.0476C5.26449 12.3492 4.64607 12.5714 3.66294 13.3175C1.93453 11.0635 2.04553 7.5873 4.24965 6.5873C6.56476 5.55555 7.75403 4.87301 9.30801 5.5873C9.11773 6.26984 9.13359 6.88888 9.18116 7.63491C9.21287 8.88888 9.2763 10.6032 8.38831 14.0476Z" fill="black"/>
<path opacity="0.1" d="M43.353 13.3175C42.3698 12.5714 41.7514 12.3492 40.3719 13.0476C39.357 13.5714 38.6752 14.4286 38.4215 15.3333C38.3105 14.8889 38.1995 14.4603 38.0885 14.0476C37.2005 10.6032 37.2798 8.88889 37.3273 7.63492C37.359 6.98412 37.3749 6.42857 37.248 5.84127C39.0399 4.74603 40.2292 5.44444 42.7663 6.5873C44.9704 7.5873 45.0814 11.0635 43.353 13.3175Z" fill="black"/>
<path opacity="0.11" d="M1.332 21.7778C1.06243 20.9682 1.56986 19.8254 1.80771 19.3809C2.12485 18.7778 2.61641 18.0476 3.15555 17.6508C3.34583 17.8413 3.55198 18.0159 3.78983 18.1587C3.45683 18.3333 2.9177 18.9048 2.48956 19.746C2.17242 20.3651 1.99799 20.9682 2.02971 21.3492C2.29928 21 2.71156 20.2381 3.04455 19.4444C3.12384 19.254 3.34583 19.1587 3.55198 19.2381C3.74226 19.3175 3.8374 19.5397 3.75812 19.746C2.67984 22.3175 2.10899 22.2857 1.90285 22.2857C1.76014 22.2698 1.47471 22.1905 1.332 21.7778Z" fill="black"/>
<path opacity="0.11" d="M4.96324 20.0794C4.78881 21.2381 3.86911 22.0952 3.12383 22.7936C2.82255 23.0794 2.53712 23.3333 2.37855 23.5714C2.15656 23.873 1.87113 24.0317 1.58571 24.0317C1.49056 24.0317 1.39542 24.0159 1.28442 23.9841C0.570861 23.7302 0.174437 22.619 0.285435 21.1905C0.301292 20.9841 0.491576 20.8095 0.697716 20.8254C0.903857 20.8413 1.06243 21.0317 1.06243 21.2381C0.967284 22.5714 1.36371 23.1905 1.56985 23.254C1.63328 23.2857 1.71256 23.1905 1.77599 23.127C1.98213 22.8413 2.28341 22.5555 2.61641 22.254C3.29826 21.6032 4.0911 20.873 4.21796 19.9841C4.34481 19.1111 4.32896 18.6508 4.28139 18.3968C4.55096 18.5079 4.82052 18.5873 5.07423 18.6349C5.07423 19.0159 5.04252 19.4921 4.96324 20.0794Z" fill="black"/>
<path opacity="0.11" d="M44.8118 21.3333C44.8435 20.9524 44.669 20.3492 44.3519 19.7301C43.9555 18.9524 43.4639 18.3968 43.1309 18.1905C43.3688 18.0635 43.5908 17.8889 43.7811 17.7143C44.2885 18.127 44.7483 18.8095 45.0496 19.3809C45.2875 19.8254 45.7949 20.9682 45.5253 21.7778C45.3826 22.1905 45.113 22.2698 44.9545 22.2698C44.7642 22.2857 44.1775 22.3016 43.0992 19.7301C43.0199 19.5397 43.1151 19.3016 43.3054 19.2222C43.4956 19.1428 43.7335 19.2381 43.8128 19.4286C44.1299 20.2222 44.5422 21 44.8118 21.3333Z" fill="black"/>
<path opacity="0.11" d="M45.5571 23.9841C45.4619 24.0159 45.3668 24.0317 45.2558 24.0317C44.9545 24.0317 44.6849 23.873 44.463 23.5714C44.3044 23.3492 44.019 23.0793 43.7177 22.7936C42.9724 22.0952 42.0527 21.2222 41.8783 20.0793C41.799 19.5079 41.7514 19.0317 41.7831 18.6508C42.0368 18.6032 42.3064 18.5397 42.576 18.4444C42.5284 18.7143 42.5284 19.1746 42.6553 19.9682C42.7821 20.8571 43.575 21.5873 44.2568 22.2381C44.574 22.5397 44.8911 22.8413 45.0972 23.1111C45.1607 23.1905 45.2399 23.2698 45.3034 23.2381C45.4937 23.1587 45.9059 22.5555 45.8108 21.2222C45.7949 21.0159 45.9535 20.8254 46.1755 20.8095C46.3816 20.7936 46.5719 20.9524 46.5878 21.1746C46.6512 22.619 46.2706 23.7143 45.5571 23.9841Z" fill="black"/>
<path opacity="0.11" d="M26.8299 8.50793C26.2908 8.50793 26.0212 8.19047 25.9578 7.85714C25.9102 7.65079 26.0529 7.44444 26.2591 7.39682C26.4652 7.3492 26.6714 7.47619 26.7189 7.69841C26.7189 7.71428 26.7189 7.71428 26.7189 7.71428C26.7665 7.74603 27.0678 7.77777 27.5911 7.49206C28.2729 7.12698 28.9706 6.39682 28.9072 5.66666C28.8913 5.46031 29.0499 5.26984 29.256 5.25396C29.4622 5.23809 29.6525 5.39682 29.6683 5.60317C29.7952 7.03174 28.2095 8.31746 27.0678 8.49206C26.9885 8.49206 26.9092 8.50793 26.8299 8.50793Z" fill="black"/>
<path opacity="0.11" d="M19.964 10.0635C19.9164 10.0635 19.8688 10.0635 19.8371 10.0635C18.743 9.96824 17.3634 8.36506 17.3317 7.41268C17.3159 6.95236 17.5854 6.61903 18.0453 6.53966C18.2514 6.50792 18.4576 6.65078 18.4893 6.85712C18.521 7.06347 18.3783 7.26982 18.1721 7.30157C18.1246 7.30157 18.1087 7.31744 18.1087 7.31744C18.0929 7.34919 18.0929 7.53966 18.299 7.92062C18.6954 8.61903 19.4407 9.25395 19.9005 9.30157C20.1384 9.31744 20.1701 9.23808 20.186 9.20633C20.297 8.93649 20.0591 8.30157 19.8213 8.11109C19.6468 7.98411 19.631 7.73014 19.7578 7.57141C19.8847 7.41268 20.1384 7.38093 20.297 7.50792C20.7251 7.84125 21.1532 8.82538 20.8995 9.49204C20.8202 9.66665 20.5982 10.0635 19.964 10.0635Z" fill="black"/>
<path opacity="0.11" d="M25.0223 6.04762C24.8796 6.04762 24.7052 6.03175 24.5307 6.01588C22.8499 5.80953 21.9619 4.85715 21.9619 4.01588C21.9619 3.42858 22.3901 2.98413 23.056 2.88889C23.2622 2.85715 23.4683 3.00001 23.5 3.22223C23.5318 3.44445 23.389 3.63493 23.167 3.66667C22.9768 3.69842 22.7389 3.77778 22.7389 4.03175C22.7389 4.42858 23.3415 5.11112 24.6417 5.26985C25.276 5.34921 25.7834 5.2381 25.9737 4.96826C26.0689 4.84127 26.0847 4.68254 26.0054 4.53969C25.9103 4.31747 25.6566 4.19048 25.3553 4.15874C24.9589 4.12699 24.6735 4.15874 24.4673 4.19048C24.5625 4.28572 24.61 4.44445 24.5625 4.58731C24.499 4.79366 24.277 4.90477 24.0709 4.8254C23.4049 4.60318 23.3573 4.2381 23.4049 4.04762C23.5476 3.33334 24.9747 3.36508 25.4029 3.39683C25.9896 3.44445 26.4811 3.74604 26.7031 4.20635C26.8934 4.60318 26.8459 5.0635 26.5921 5.4127C26.4019 5.66667 25.9579 6.04762 25.0223 6.04762Z" fill="black"/>
<path opacity="0.11" d="M28.2254 4.873C27.7973 4.873 27.4484 4.66665 27.3057 4.31744C27.1154 3.85713 27.2899 3.12697 28.3523 2.47617C28.051 2.52379 27.6863 2.61903 27.274 2.76189C27.0679 2.84125 26.6397 2.98411 26.4019 2.6984C26.3384 2.61903 26.2116 2.41268 26.3702 2.09522C26.6556 1.57141 28.051 0.396809 28.7328 0.460301C28.939 0.492047 29.0975 0.66665 29.0658 0.888873C29.05 1.09522 28.8438 1.25395 28.6377 1.23808C28.4633 1.23808 28.0034 1.53967 27.6228 1.84125C28.3364 1.65078 29.3195 1.49205 29.5574 1.99998C29.7953 2.50792 29.1293 2.90475 28.8121 3.09522C28.1144 3.52379 27.9717 3.92062 28.0193 4.03173C28.0351 4.09522 28.1778 4.12697 28.384 4.07935C28.828 3.98411 29.272 3.52379 29.7794 2.99998C30.1917 2.58729 30.6357 2.11109 31.2065 1.71427C31.4761 1.52379 31.5871 1.34919 31.5554 1.2857C31.4761 1.11109 30.8418 0.873 29.9697 1.07935C29.7635 1.12697 29.5574 0.999984 29.5098 0.793635C29.4623 0.587285 29.5891 0.380936 29.7953 0.333317C30.9052 0.0634759 31.9677 0.34919 32.2531 0.984111C32.3482 1.20633 32.4909 1.76189 31.6505 2.36506C31.159 2.71427 30.7308 3.14284 30.3344 3.55554C29.7635 4.14284 29.2244 4.6984 28.5584 4.85713C28.4316 4.85713 28.3206 4.873 28.2254 4.873Z" fill="black"/>
<path opacity="0.11" d="M19.5992 5.76188C19.4882 5.76188 19.3772 5.74601 19.2662 5.71426C18.6002 5.55553 18.061 4.99998 17.4902 4.41267C17.0938 3.99998 16.6815 3.5714 16.1741 3.2222C15.3336 2.6349 15.4764 2.06347 15.5715 1.84124C15.8569 1.20632 16.9193 0.936483 18.0293 1.19045C18.2355 1.23807 18.3623 1.44442 18.3147 1.65077C18.2672 1.85712 18.061 1.9841 17.8549 1.93648C16.9828 1.73013 16.3643 1.96823 16.2692 2.14283C16.2375 2.20632 16.3485 2.38093 16.6181 2.5714C17.173 2.96823 17.6329 3.44442 18.0452 3.85712C18.5526 4.38093 18.9966 4.84125 19.4406 4.93648C19.6467 4.9841 19.7736 4.93648 19.8053 4.88886C19.8529 4.77775 19.7102 4.38093 19.0125 3.95236C18.6953 3.76188 18.0293 3.36505 18.2672 2.85712C18.505 2.34918 19.4882 2.50791 20.2017 2.69839C19.8212 2.38093 19.3772 2.09521 19.1869 2.09521C18.9807 2.11109 18.7905 1.96823 18.7587 1.76188C18.727 1.55553 18.8856 1.36505 19.1076 1.33331C19.7894 1.25394 21.2007 2.42855 21.4703 2.96823C21.6447 3.28569 21.502 3.49204 21.4386 3.5714C21.1849 3.85712 20.7726 3.71426 20.5664 3.6349C20.1542 3.49204 19.7894 3.3968 19.4882 3.34918C20.5347 3.99998 20.725 4.73013 20.5347 5.19045C20.3761 5.55553 20.0273 5.76188 19.5992 5.76188Z" fill="black"/>
<path opacity="0.11" d="M42.3064 11.4444C41.7355 11.4444 41.1012 11.1905 40.5463 10.5238C40.4511 10.3968 38.0091 7.46031 38.7068 6.23808C38.8496 5.98412 39.1667 5.71428 39.8803 5.84126C40.0864 5.87301 40.2291 6.07935 40.1974 6.2857C40.1657 6.49205 39.9595 6.63491 39.7534 6.60316C39.5314 6.57142 39.4046 6.58729 39.3728 6.63491C39.1984 6.95237 39.801 8.42856 41.133 10.0317C41.7514 10.7778 42.4649 10.7936 42.9089 10.4762C43.3054 10.1905 43.5274 9.57142 43.0834 8.84126C42.6077 8.04761 41.7831 7.57142 41.1805 7.44443C40.9427 7.39682 40.7841 7.41269 40.7365 7.42856C40.7524 7.47618 40.7841 7.55555 40.8634 7.68253C41.6087 8.76189 42.0685 8.71428 42.0685 8.71428C42.0527 8.71428 42.0368 8.71428 42.0368 8.71428L42.2747 9.44443C42.1161 9.49205 41.2757 9.68253 40.2133 8.1111C39.8644 7.60316 39.912 7.26983 40.023 7.06348C40.1023 6.90475 40.3084 6.65078 40.8317 6.63491C41.7197 6.60316 43.0517 7.26983 43.7494 8.44443C44.4312 9.58729 44.0348 10.619 43.3529 11.0952C43.0834 11.3175 42.7028 11.4444 42.3064 11.4444Z" fill="black"/>
<path opacity="0.11" d="M43.3529 16.4444C43.3054 16.4444 43.2578 16.4444 43.2102 16.4444C42.6394 16.3968 42.2271 16.0318 42.1002 15.4762C42.021 15.1429 41.91 14.8254 41.8148 14.5397C41.5928 13.9048 41.4342 13.4603 41.7514 13.1746C42.0527 12.9048 42.5125 13.1111 42.7028 13.2064C42.8931 13.3016 42.9724 13.5238 42.8931 13.7143C42.8138 13.9048 42.5918 13.9841 42.4174 13.9206C42.4491 14.0476 42.4967 14.1905 42.5442 14.3016C42.6552 14.6032 42.7662 14.9524 42.8614 15.3175C42.8772 15.3968 42.9407 15.6667 43.3054 15.6984C43.5591 15.7302 43.7811 15.6032 43.8286 15.5397C43.8286 15.5238 43.7969 15.5079 43.7652 15.4762C43.7176 15.4444 43.6859 15.4127 43.6542 15.381C43.6066 15.5238 43.4798 15.6349 43.3212 15.6508C43.1151 15.6667 42.9248 15.5079 42.9089 15.3016C42.8931 15.0318 42.9565 14.6984 43.2419 14.5556C43.6701 14.3492 44.1141 14.7619 44.2885 14.9048C44.5898 15.1746 44.6849 15.5238 44.5422 15.8413C44.3678 16.1746 43.8762 16.4444 43.3529 16.4444Z" fill="black"/>
<path opacity="0.11" d="M3.7423 16.1429C3.21902 16.1429 2.72746 15.8889 2.56889 15.5079C2.42618 15.1905 2.52132 14.8413 2.8226 14.5714C2.99703 14.4127 3.44102 14.0159 3.86916 14.2222C4.15458 14.3651 4.23387 14.6984 4.20215 14.9682C4.1863 15.1746 3.99601 15.3333 3.78987 15.3175C3.6313 15.3016 3.50445 15.1905 3.45688 15.0476C3.42516 15.0794 3.39345 15.1111 3.34588 15.1429C3.31416 15.1746 3.29831 15.1905 3.28245 15.2063C3.33002 15.2698 3.55202 15.3968 3.80573 15.3651C4.17044 15.3333 4.21801 15.0794 4.24972 14.9841C4.32901 14.619 4.45586 14.2698 4.56686 13.9682C4.61443 13.8571 4.66201 13.7143 4.69372 13.5873C4.50344 13.6508 4.2973 13.5714 4.21801 13.3809C4.12287 13.1905 4.21801 12.9524 4.40829 12.873C4.59858 12.7778 5.05843 12.5714 5.35971 12.8413C5.67685 13.127 5.51828 13.5873 5.29628 14.2063C5.20114 14.4921 5.09014 14.8254 5.01086 15.1429C4.884 15.6984 4.45587 16.0635 3.90087 16.1111C3.83744 16.1429 3.78987 16.1429 3.7423 16.1429Z" fill="black"/>
<path opacity="0.11" d="M4.05933 10.5238C3.45676 10.5238 2.98106 10.127 2.87006 9.50792C2.72735 8.77776 3.10791 7.76189 4.29718 7.26982C4.48747 7.19046 4.72532 7.28569 4.80461 7.47617C4.88389 7.66665 4.78875 7.90474 4.59847 7.98411C3.82147 8.30157 3.55191 8.92062 3.64705 9.34919C3.67876 9.49204 3.7739 9.74601 4.09104 9.74601C5.54988 9.74601 6.99287 8.66665 7.72228 7.68252C8.07114 7.20633 8.13457 6.92062 8.11871 6.84125C8.10285 6.84125 8.08699 6.84125 8.05528 6.84125C7.34172 6.84125 6.96115 7.28569 6.53301 7.82538C6.18416 8.23808 5.83531 8.66665 5.29617 8.82538C5.09003 8.88887 4.88389 8.76189 4.82046 8.55554C4.75703 8.34919 4.88389 8.14284 5.09003 8.07935C5.40717 7.98411 5.66088 7.68252 5.94631 7.33331C6.40616 6.77776 6.97701 6.07935 8.07114 6.07935C8.57856 6.07935 8.8957 6.38093 8.8957 6.85712C8.87984 7.99998 6.54887 10.5238 4.05933 10.5238Z" fill="black"/>
</g>
<defs>
<clipPath id="clip0_112_27">
<rect width="47" height="50" fill="white"/>
</clipPath>
</defs>
</svg>
