<svg width="13" height="17" viewBox="0 0 13 17" fill="none" xmlns="http://www.w3.org/2000/svg">
<path d="M4.98375 0.524676C4.33374 1.00169 0 4.38861 0 9.8982C0 10.7652 0.168127 11.6237 0.494783 12.4248C0.821438 13.2258 1.30022 13.9536 1.90381 14.5667C2.50739 15.1798 3.22394 15.6661 4.01256 15.9979C4.77838 16.3201 5.5976 16.4904 6.42602 16.5C4.40882 16.46 2.78571 14.7865 2.78571 12.728C2.78571 12.5417 2.79901 12.3586 2.82469 12.1795C2.82578 12.1689 2.82712 12.1582 2.82869 12.1474C3.14015 10.0217 5.06563 8.21701 5.99678 7.45589C6.29432 7.21269 6.70581 7.21269 7.00335 7.4559C7.93447 8.21702 9.85987 10.0217 10.1713 12.1474C10.1729 12.1582 10.1742 12.1689 10.1753 12.1796C10.201 12.3586 10.2143 12.5417 10.2143 12.728C10.2143 14.7865 8.59118 16.46 6.57398 16.5C7.4024 16.4904 8.22162 16.3201 8.98744 15.9979C9.77606 15.6661 10.4926 15.1798 11.0962 14.5667C11.6998 13.9536 12.1786 13.2258 12.5052 12.4248C12.8208 11.6509 12.9884 10.8233 12.9994 9.98629C12.9998 9.97547 13 9.9646 13 9.95368L13 9.92385L13 9.89829C12.9755 5.8986 10.3112 3.7157 9.82553 3.35089C9.78 3.31669 9.71946 3.31708 9.67393 3.35128C9.47917 3.49761 8.93667 3.93432 8.35408 4.66142C8.28764 4.74434 8.15706 4.72848 8.11209 4.63182C7.01752 2.27901 5.50115 0.850959 5.14295 0.533824C5.09674 0.492909 5.03344 0.488209 4.98375 0.524676Z" fill="#333333"/>
</svg>
