<svg width="28" height="20" viewBox="0 0 28 20" fill="none" xmlns="http://www.w3.org/2000/svg">
<path d="M10.0093 8.62803C8.97851 7.58522 8.34043 6.14115 8.34043 4.54545C8.34043 2.94976 8.97851 1.50568 10.0093 0.462884C9.41582 0.166457 8.74829 0 8.04255 0C5.5749 0 3.57447 2.03507 3.57447 4.54545C3.57447 7.05584 5.5749 9.09091 8.04255 9.09091C8.74829 9.09091 9.41582 8.92445 10.0093 8.62803Z" fill="#FF758C"/>
<path d="M9.53191 4.54545C9.53191 2.03507 11.5323 0 14 0C16.4677 0 18.4681 2.03507 18.4681 4.54545C18.4681 7.05584 16.4677 9.09091 14 9.09091C11.5323 9.09091 9.53191 7.05584 9.53191 4.54545Z" fill="#FF758C"/>
<path d="M17.9907 0.462884C19.0215 1.50568 19.6596 2.94976 19.6596 4.54545C19.6596 6.14115 19.0215 7.58522 17.9907 8.62803C18.5842 8.92445 19.2517 9.09091 19.9574 9.09091C22.4251 9.09091 24.4255 7.05584 24.4255 4.54545C24.4255 2.03507 22.4251 0 19.9574 0C19.2517 0 18.5842 0.166457 17.9907 0.462884Z" fill="#FF758C"/>
<path d="M5.95745 15.4545C5.95745 12.9442 7.95788 10.9091 10.4255 10.9091H17.5745C20.0421 10.9091 22.0426 12.9442 22.0426 15.4545C22.0426 17.9649 20.0421 20 17.5745 20H10.4255C7.95788 20 5.95745 17.9649 5.95745 15.4545Z" fill="#FF758C"/>
<path d="M0 14.2424C0 11.732 2.00043 9.69697 4.46808 9.69697H10.4255C7.29984 9.69697 4.76596 12.2747 4.76596 15.4545C4.76596 16.6968 5.15269 17.8472 5.81036 18.7879H4.46808C2.00043 18.7879 0 16.7528 0 14.2424Z" fill="#FF758C"/>
<path d="M23.234 15.4545C23.234 16.6968 22.8473 17.8472 22.1896 18.7879H23.5319C25.9996 18.7879 28 16.7528 28 14.2424C28 11.732 25.9996 9.69697 23.5319 9.69697H17.5745C20.7002 9.69697 23.234 12.2747 23.234 15.4545Z" fill="#FF758C"/>
</svg>
