<svg xmlns="http://www.w3.org/2000/svg" width="30" height="30" fill="none"><path fill="#fff" fill-rule="evenodd" d="M0 4.688A4.688 4.688 0 0 1 4.688 0h20.625A4.688 4.688 0 0 1 30 4.688v20.625A4.688 4.688 0 0 1 25.312 30H4.688A4.688 4.688 0 0 1 0 25.312V4.688ZM8.55 8.55C7.5 9.61 7.5 11.305 7.5 14.7v.6c0 3.39 0 5.085 1.05 6.15 1.06 1.05 2.755 1.05 6.15 1.05h.6c3.39 0 5.085 0 6.15-1.05 1.05-1.06 1.05-2.755 1.05-6.15v-.6c0-3.39 0-5.085-1.05-6.15C20.39 7.5 18.695 7.5 15.3 7.5h-.6c-3.39 0-5.085 0-6.15 1.05Z" clip-rule="evenodd"/><path fill="#fff" d="M15.48 18.305c-3.42 0-5.37-2.34-5.45-6.24h1.72c.055 2.86 1.315 4.07 2.315 4.32v-4.32h1.615v2.465c.985-.105 2.025-1.23 2.375-2.47h1.61a4.766 4.766 0 0 1-2.19 3.115 4.935 4.935 0 0 1 2.565 3.13h-1.775c-.38-1.185-1.33-2.105-2.585-2.23v2.23h-.2Z"/></svg>