<svg width="20" height="20" viewBox="0 0 20 20" fill="none" xmlns="http://www.w3.org/2000/svg">
<path fill-rule="evenodd" clip-rule="evenodd" d="M6.92308 7.17949C5.36535 7.17949 4.10256 8.44228 4.10256 10C4.10256 11.5577 5.36535 12.8205 6.92308 12.8205C8.21413 12.8205 9.30258 11.9531 9.63742 10.7692H11.5269C11.5836 11.0472 11.5471 11.3396 11.4174 11.599L11.3633 11.7073C11.1733 12.0873 11.3273 12.5493 11.7073 12.7393C12.0873 12.9293 12.5493 12.7753 12.7393 12.3953L12.7934 12.287C13.0313 11.8114 13.1266 11.2853 13.0795 10.7692H14.6038C14.6605 11.0472 14.624 11.3396 14.4943 11.599L14.4402 11.7073C14.2502 12.0873 14.4042 12.5493 14.7842 12.7393C15.1642 12.9293 15.6262 12.7753 15.8162 12.3953L15.8704 12.287C16.2674 11.493 16.2674 10.5583 15.8704 9.76427C15.7069 9.43731 15.3727 9.23077 15.0071 9.23077H12.0667C12.0561 9.23055 12.0453 9.23055 12.0346 9.23077H9.63742C9.30258 8.04692 8.21413 7.17949 6.92308 7.17949ZM5.64103 10C5.64103 9.29194 6.21502 8.71795 6.92308 8.71795C7.63113 8.71795 8.20513 9.29194 8.20513 10C8.20513 10.7081 7.63113 11.2821 6.92308 11.2821C6.21502 11.2821 5.64103 10.7081 5.64103 10Z" fill="#646464"/>
<path fill-rule="evenodd" clip-rule="evenodd" d="M14.578 0.126901C13.4066 -1.49012e-05 11.93 -8.23949e-06 10.0464 1.3573e-07H9.95359C8.06996 -8.23949e-06 6.59345 -1.49012e-05 5.42203 0.126901C4.2266 0.256417 3.25801 0.525461 2.43101 1.12631C1.93035 1.49006 1.49006 1.93035 1.12631 2.43101C0.525461 3.25801 0.256417 4.2266 0.126901 5.42203C-1.49012e-05 6.59345 -8.23949e-06 8.06996 1.35731e-07 9.95359V10.0464C-8.23949e-06 11.93 -1.49012e-05 13.4066 0.126901 14.578C0.256417 15.7734 0.525461 16.742 1.12631 17.569C1.49006 18.0697 1.93035 18.5099 2.43101 18.8737C3.25801 19.4745 4.2266 19.7436 5.42203 19.8731C6.59343 20 8.06991 20 9.95349 20H10.0464C11.93 20 13.4066 20 14.578 19.8731C15.7734 19.7436 16.742 19.4745 17.569 18.8737C18.0697 18.5099 18.5099 18.0697 18.8737 17.569C19.4745 16.742 19.7436 15.7734 19.8731 14.578C20 13.4066 20 11.9301 20 10.0465V9.95357C20 8.06999 20 6.59343 19.8731 5.42203C19.7436 4.2266 19.4745 3.25801 18.8737 2.43101C18.5099 1.93035 18.0697 1.49006 17.569 1.12631C16.742 0.525461 15.7734 0.256417 14.578 0.126901ZM3.3353 2.37095C3.85633 1.9924 4.52321 1.77175 5.58774 1.65641C6.66666 1.53952 8.05993 1.53846 10 1.53846C11.9401 1.53846 13.3333 1.53952 14.4123 1.65641C15.4768 1.77175 16.1437 1.9924 16.6647 2.37095C17.0348 2.63981 17.3602 2.96524 17.6291 3.3353C18.0076 3.85633 18.2283 4.52321 18.3436 5.58774C18.4605 6.66666 18.4615 8.05993 18.4615 10C18.4615 11.9401 18.4605 13.3333 18.3436 14.4123C18.2283 15.4768 18.0076 16.1437 17.6291 16.6647C17.3602 17.0348 17.0348 17.3602 16.6647 17.6291C16.1437 18.0076 15.4768 18.2283 14.4123 18.3436C13.3333 18.4605 11.9401 18.4615 10 18.4615C8.05993 18.4615 6.66666 18.4605 5.58774 18.3436C4.52321 18.2283 3.85633 18.0076 3.3353 17.6291C2.96524 17.3602 2.63981 17.0348 2.37095 16.6647C1.9924 16.1437 1.77175 15.4768 1.65641 14.4123C1.53952 13.3333 1.53846 11.9401 1.53846 10C1.53846 8.05993 1.53952 6.66666 1.65641 5.58774C1.77175 4.52321 1.9924 3.85633 2.37095 3.3353C2.63981 2.96524 2.96524 2.63981 3.3353 2.37095Z" fill="#646464"/>
</svg>
