<svg xmlns="http://www.w3.org/2000/svg" width="30" height="30" fill="none"><path fill="#fff" fill-rule="evenodd" d="M4.688 0h20.625A4.688 4.688 0 0 1 30 4.688v20.625A4.688 4.688 0 0 1 25.312 30H4.688A4.688 4.688 0 0 1 0 25.312V4.688A4.688 4.688 0 0 1 4.688 0Zm10.96 11.257c-1.343.559-4.028 1.715-8.054 3.47-.654.26-.997.514-1.028.763-.053.42.474.586 1.19.81l.303.097c.705.23 1.654.497 2.147.508.447.01.946-.175 1.498-.553 3.762-2.54 5.704-3.823 5.826-3.851.086-.02.205-.044.286.028.08.072.073.207.064.244-.052.222-2.118 2.143-3.188 3.137-.333.31-.57.53-.618.58-.108.113-.219.22-.325.321-.655.632-1.146 1.106.028 1.879.564.372 1.015.68 1.465.986.492.335.982.669 1.617 1.085.162.105.316.216.466.323.573.408 1.087.774 1.722.716.37-.034.75-.381.944-1.416.458-2.446 1.357-7.746 1.565-9.93a2.437 2.437 0 0 0-.023-.544.582.582 0 0 0-.197-.374c-.165-.135-.42-.163-.535-.16-.52.008-1.317.285-5.152 1.88Z" clip-rule="evenodd"/></svg>