<svg xmlns="http://www.w3.org/2000/svg" width="30" height="30" fill="none"><path fill="#fff" fill-rule="evenodd" d="M11.813 20.344c.937.562 2.062.843 3.187.843 3.469 0 6.188-2.812 6.188-6.093 0-1.688-.563-3.188-1.782-4.406C18.188 9.562 16.688 8.905 15 8.905c-3.375 0-6.188 2.813-6.188 6.188 0 1.125.282 2.25.938 3.281l.188.281-.657 2.25 2.344-.656.188.094Zm5.25-4.407c.187 0 1.125.47 1.312.563.03.015.058.027.087.04.157.065.303.127.382.523.093 0 .093.375-.094.843-.094.375-.844.844-1.219.844-.063 0-.124.005-.19.011-.318.028-.736.065-2.06-.48-1.643-.657-2.782-2.25-3.102-2.697a1.593 1.593 0 0 0-.085-.115c-.016-.032-.048-.083-.091-.15-.207-.328-.66-1.041-.66-1.819 0-.938.47-1.406.657-1.594.188-.187.375-.187.469-.187h.375c.094 0 .281 0 .375.281.187.375.562 1.313.562 1.406 0 .031.01.063.021.094.02.063.042.125-.02.188a.49.49 0 0 0-.095.14.491.491 0 0 1-.093.14l-.281.282c-.094.094-.188.188-.094.375.094.188.469.844 1.031 1.313a5.044 5.044 0 0 0 1.386.885c.046.02.085.037.114.052.188 0 .281 0 .375-.094.047-.093.164-.234.281-.375.117-.14.235-.281.282-.375.093-.187.187-.187.375-.093Z" clip-rule="evenodd"/><path fill="#fff" fill-rule="evenodd" d="M0 4.688A4.688 4.688 0 0 1 4.688 0h20.625A4.688 4.688 0 0 1 30 4.688v20.625A4.688 4.688 0 0 1 25.312 30H4.688A4.688 4.688 0 0 1 0 25.312V4.688ZM15 7.5c1.969 0 3.844.75 5.25 2.156 1.406 1.406 2.25 3.281 2.25 5.25 0 4.125-3.375 7.5-7.5 7.5-1.219 0-2.438-.375-3.563-.937L7.5 22.5l1.031-3.75A7.516 7.516 0 0 1 7.5 15c0-4.125 3.375-7.5 7.5-7.5Z" clip-rule="evenodd"/></svg>