<svg width="20" height="20" viewBox="0 0 20 20" fill="none" xmlns="http://www.w3.org/2000/svg">
<path fill-rule="evenodd" clip-rule="evenodd" d="M0 10C0 5.83363 0 3.75045 1.06102 2.29008C1.40368 1.81844 1.81844 1.40368 2.29008 1.06102C3.75045 0 5.83363 0 10 0C14.1664 0 16.2496 0 17.7099 1.06102C18.1816 1.40368 18.5963 1.81844 18.939 2.29008C20 3.75045 20 5.83363 20 10C20 14.1664 20 16.2496 18.939 17.7099C18.5963 18.1816 18.1816 18.5963 17.7099 18.939C16.2496 20 14.1664 20 10 20C5.83363 20 3.75045 20 2.29008 18.939C1.81844 18.5963 1.40368 18.1816 1.06102 17.7099C0 16.2496 0 14.1664 0 10ZM10 3.61111C10.4602 3.61111 10.8333 3.98421 10.8333 4.44444V11.1111C10.8333 11.5713 10.4602 11.9444 10 11.9444C9.53976 11.9444 9.16667 11.5713 9.16667 11.1111V4.44444C9.16667 3.98421 9.53976 3.61111 10 3.61111ZM10 15.5556C10.6136 15.5556 11.1111 15.0581 11.1111 14.4444C11.1111 13.8308 10.6136 13.3333 10 13.3333C9.38635 13.3333 8.88889 13.8308 8.88889 14.4444C8.88889 15.0581 9.38635 15.5556 10 15.5556Z" fill="#FF758C"/>
</svg>
