<svg width="50" height="16" viewBox="0 0 50 16" fill="none" xmlns="http://www.w3.org/2000/svg">
<g clip-path="url(#clip0_678_112)">
<path d="M21.421 15.7684H17.4166L19.9213 0.281433H23.9255L21.421 15.7684Z" fill="#00579F"/>
<path d="M35.9375 0.660074C35.1477 0.346717 33.8949 0.000732422 32.3458 0.000732422C28.3913 0.000732422 25.6066 2.10949 25.5895 5.12437C25.5567 7.34875 27.5833 8.58422 29.0991 9.32589C30.6483 10.0838 31.175 10.5784 31.175 11.254C31.1592 12.2915 29.9231 12.7698 28.7702 12.7698C27.1714 12.7698 26.3148 12.5232 25.0129 11.946L24.4856 11.6985L23.9253 15.175C24.8645 15.6029 26.5948 15.9826 28.3913 15.9992C32.5931 15.9992 35.3285 13.9231 35.3609 10.7103C35.3769 8.94728 34.3068 7.59641 31.9996 6.49254C30.5991 5.78393 29.7413 5.30612 29.7413 4.58109C29.7577 3.92197 30.4668 3.24686 32.0478 3.24686C33.3496 3.21379 34.3061 3.52671 35.0307 3.83985L35.3929 4.0043L35.9375 0.660074Z" fill="#00579F"/>
<path d="M41.2598 10.2819C41.5895 9.39222 42.8585 5.94879 42.8585 5.94879C42.8419 5.98186 43.1876 5.04266 43.3854 4.4661L43.6652 5.80055C43.6652 5.80055 44.4236 9.50762 44.5882 10.2819C43.9624 10.2819 42.0507 10.2819 41.2598 10.2819ZM46.2027 0.281433H43.1053C42.1501 0.281433 41.4244 0.561287 41.0123 1.56639L35.0642 15.7682H39.266C39.266 15.7682 39.9577 13.8567 40.1064 13.4451C40.5674 13.4451 44.6548 13.4451 45.2478 13.4451C45.3627 13.9888 45.7256 15.7682 45.7256 15.7682H49.4333L46.2027 0.281433Z" fill="#00579F"/>
<path d="M14.0719 0.281433L10.1503 10.8421L9.72173 8.70025C8.99669 6.22886 6.72283 3.54376 4.18532 2.20866L7.77743 15.752H12.012L18.3063 0.281433H14.0719Z" fill="#00579F"/>
<path d="M6.50867 0.281433H0.065912L0 0.594352C5.02576 1.87953 8.35421 4.97741 9.72173 8.7009L8.32115 1.58325C8.09057 0.594133 7.38195 0.314061 6.50867 0.281433Z" fill="#FAA61A"/>
</g>
<defs>
<clipPath id="clip0_678_112">
<rect width="49.4333" height="16" fill="white"/>
</clipPath>
</defs>
</svg>
