<svg width="22" height="20" viewBox="0 0 22 20" fill="none" xmlns="http://www.w3.org/2000/svg">
<path fill-rule="evenodd" clip-rule="evenodd" d="M16.5906 0.126901C15.4219 -1.49012e-05 13.9488 -8.23949e-06 12.0696 1.3573e-07H9.93044C8.0512 -8.23949e-06 6.57812 -1.49012e-05 5.40942 0.126901C4.21677 0.256417 3.25043 0.525461 2.42536 1.12631C1.92586 1.49006 1.4866 1.93035 1.12369 2.43101C0.958248 2.65925 0.81657 2.90032 0.695682 3.15689C0.325481 3.94261 0.160355 4.85371 0.0798802 5.94019C-4.61243e-06 7.0187 -2.4872e-06 8.34075 1.35415e-07 9.97083V10.0464C-8.22033e-06 11.93 -1.48665e-05 13.4066 0.126606 14.578C0.25582 15.7734 0.524239 16.742 1.12369 17.569C1.4866 18.0697 1.92586 18.5099 2.42536 18.8737C3.25043 19.4745 4.21677 19.7436 5.40942 19.8731C6.57809 20 8.05115 20 9.93034 20H12.0696C13.9488 20 15.4219 20 16.5906 19.8731C17.7832 19.7436 18.7496 19.4745 19.5746 18.8737C20.0741 18.5099 20.5134 18.0697 20.8763 17.569C21.4758 16.742 21.7442 15.7734 21.8734 14.578C22 13.4066 22 11.9301 22 10.0465V9.97015C22 8.32895 22 6.99985 21.9184 5.91697C21.8361 4.8257 21.6673 3.91158 21.2885 3.12355C21.171 2.87932 21.0345 2.64927 20.8763 2.43101C20.5134 1.93035 20.0741 1.49006 19.5746 1.12631C18.7496 0.525461 17.7832 0.256417 16.5906 0.126901ZM3.32754 2.37095C3.84736 1.9924 4.5127 1.77175 5.57474 1.65641C6.65116 1.53952 8.04118 1.53846 9.97674 1.53846H12.0233C13.9588 1.53846 15.3488 1.53952 16.4253 1.65641C17.4873 1.77175 18.1526 1.9924 18.6725 2.37095C19.0415 2.63968 19.366 2.96493 19.6342 3.33476L17.6928 5.28062C15.9721 7.0054 14.7349 8.24311 13.6679 9.05915C12.6185 9.86164 11.8244 10.1835 11 10.1835C10.1756 10.1835 9.38147 9.86164 8.33212 9.05915C7.26506 8.24311 6.02792 7.0054 4.30715 5.28062L2.36582 3.33476C2.63398 2.96493 2.95852 2.63968 3.32754 2.37095ZM20.2475 4.89577C20.3093 5.22421 20.3552 5.59888 20.3879 6.03286C20.4646 7.05121 20.4651 8.3229 20.4651 10C20.4651 11.9401 20.4641 13.3333 20.3474 14.4123C20.2324 15.4768 20.0122 16.1437 19.6346 16.6647C19.3663 17.0348 19.0417 17.3602 18.6725 17.6291C18.1526 18.0076 17.4873 18.2283 16.4253 18.3436C15.3488 18.4605 13.9588 18.4615 12.0233 18.4615H9.97674C8.04118 18.4615 6.65116 18.4605 5.57474 18.3436C4.5127 18.2283 3.84736 18.0076 3.32754 17.6291C2.95835 17.3602 2.63367 17.0348 2.36544 16.6647C1.98777 16.1437 1.76763 15.4768 1.65256 14.4123C1.53594 13.3333 1.53488 11.9401 1.53488 10C1.53488 8.33482 1.53536 7.06917 1.61055 6.05409C1.64336 5.61112 1.68971 5.22959 1.75254 4.89577L3.26334 6.41008C4.93357 8.08423 6.2425 9.39622 7.40109 10.2823C8.58697 11.1892 9.70512 11.722 11 11.722C12.2949 11.722 13.413 11.1892 14.5989 10.2823C15.7575 9.39622 17.0664 8.08424 18.7366 6.41011L20.2475 4.89577Z" fill="#646464"/>
</svg>
