<svg width="16" height="15" viewBox="0 0 16 15" fill="none" xmlns="http://www.w3.org/2000/svg">
<path fill-rule="evenodd" clip-rule="evenodd" d="M3.41333 6.875C3.05987 6.875 2.77333 7.15482 2.77333 7.5C2.77333 7.84518 3.05987 8.125 3.41333 8.125L10.24 8.125L10.24 10C10.24 10.7742 10.24 11.1613 10.1875 11.4851C9.89831 13.268 8.46646 14.6663 6.64079 14.9487C6.30913 15 5.91275 15 5.12 15C4.32725 15 3.93087 15 3.59921 14.9487C1.77354 14.6663 0.341687 13.268 0.0525288 11.4851C-4.87874e-07 11.1613 -4.70954e-07 10.7742 -4.37114e-07 10L-2.18557e-07 5C-1.84717e-07 4.22583 -1.67797e-07 3.83874 0.0525292 3.51486C0.341687 1.73197 1.77354 0.333679 3.59921 0.0512981C3.93087 -5.27558e-07 4.32725 -5.10232e-07 5.12 -4.7558e-07C5.91275 -4.40928e-07 6.30913 -4.23601e-07 6.64079 0.0512982C8.46646 0.33368 9.89831 1.73197 10.1875 3.51486C10.24 3.83874 10.24 4.22583 10.24 5L10.24 6.875L3.41333 6.875ZM10.24 6.875L14.3449 6.875C14.0655 6.60612 13.6542 6.28646 13.0534 5.82128L11.549 4.6564C11.2721 4.44195 11.2256 4.04883 11.4452 3.77836C11.6648 3.50788 12.0673 3.46247 12.3443 3.67693L13.8793 4.86547C14.4531 5.30979 14.9266 5.67643 15.264 6.00459C15.6102 6.34135 15.8971 6.71513 15.9751 7.19277C15.9917 7.29453 16 7.39718 16 7.5C16 7.60282 15.9917 7.70547 15.9751 7.80723C15.8971 8.28487 15.6102 8.65865 15.264 8.99541C14.9266 9.32357 14.4531 9.69021 13.8793 10.1345L12.3443 11.3231C12.0673 11.5375 11.6648 11.4921 11.4452 11.2216C11.2256 10.9512 11.2721 10.5581 11.549 10.3436L13.0534 9.17873C13.6542 8.71354 14.0655 8.39388 14.3449 8.125L10.24 8.125L10.24 6.875Z" fill="#333333"/>
</svg>
