<svg width="19" height="25" viewBox="0 0 19 25" fill="none" xmlns="http://www.w3.org/2000/svg">
<path d="M8.48668 0C4.81572 0 1.97544 3.34385 2.43077 7.12962L2.51656 7.84293C2.6421 8.8867 2.27525 9.92928 1.53144 10.6426C-0.00987761 12.1208 -0.4381 14.4736 0.477221 16.4347L0.588955 16.6742C1.44213 18.5022 3.22521 19.6629 5.1801 19.6629H14.0677C15.7539 19.6629 17.3233 18.7676 18.2286 17.2891C19.5067 15.2021 19.1682 12.4643 17.424 10.7809L17.3766 10.7351C16.5781 9.96442 16.185 8.84171 16.3202 7.71799L16.39 7.13717C16.8459 3.34739 14.0026 0 10.3277 0H8.48668Z" fill="url(#paint0_linear_388_1793)"/>
<path d="M7.06331 21.6854C6.79462 21.3131 6.28639 21.2376 5.92815 21.5169C5.5699 21.7961 5.49729 22.3243 5.76598 22.6966L6.09031 23.1461C7.87414 25.618 11.4418 25.618 13.2256 23.1461L13.55 22.6966C13.8187 22.3243 13.746 21.7961 13.3878 21.5169C13.0296 21.2376 12.5213 21.3131 12.2526 21.6854L11.9283 22.1348C10.7931 23.7079 8.52281 23.7079 7.38764 22.1348L7.06331 21.6854Z" fill="url(#paint1_linear_388_1793)"/>
<defs>
<linearGradient id="paint0_linear_388_1793" x1="0" y1="12.5" x2="19" y2="12.5" gradientUnits="userSpaceOnUse">
<stop stop-color="#FF758C"/>
<stop offset="1" stop-color="#FF7EB3"/>
</linearGradient>
<linearGradient id="paint1_linear_388_1793" x1="0" y1="12.5" x2="19" y2="12.5" gradientUnits="userSpaceOnUse">
<stop stop-color="#FF758C"/>
<stop offset="1" stop-color="#FF7EB3"/>
</linearGradient>
</defs>
</svg>
