<svg width="14" height="17" viewBox="0 0 14 17" fill="none" xmlns="http://www.w3.org/2000/svg">
<path d="M5.47333 8.5C5.47333 7.62368 6.15686 6.91329 7.00004 6.91329C7.84321 6.91329 8.52674 7.62368 8.52674 8.5C8.52674 9.37631 7.84321 10.0867 7.00004 10.0867C6.15686 10.0867 5.47333 9.37631 5.47333 8.5Z" fill="#333333"/>
<path fill-rule="evenodd" clip-rule="evenodd" d="M4.683 2.31698C5.34824 -0.105659 8.65176 -0.10566 9.317 2.31698C9.52312 3.0676 10.2651 3.51284 10.9937 3.32304C13.345 2.71048 14.9968 5.68386 13.3107 7.49394C12.7882 8.05476 12.7882 8.94524 13.3107 9.50606C14.9968 11.3161 13.345 14.2895 10.9937 13.677C10.2651 13.4872 9.52312 13.9324 9.317 14.683C8.65176 17.1057 5.34824 17.1057 4.683 14.683C4.47688 13.9324 3.73487 13.4872 3.00634 13.677C0.654995 14.2895 -0.996764 11.3161 0.689341 9.50606C1.21176 8.94524 1.21176 8.05476 0.689341 7.49394C-0.996763 5.68386 0.654994 2.71048 3.00634 3.32304C3.73487 3.51284 4.47688 3.0676 4.683 2.31698ZM7.00004 5.85549C5.59475 5.85549 4.45553 7.03948 4.45553 8.5C4.45553 9.96052 5.59475 11.1445 7.00004 11.1445C8.40533 11.1445 9.54454 9.96052 9.54454 8.5C9.54454 7.03948 8.40533 5.85549 7.00004 5.85549Z" fill="#333333"/>
</svg>
