<svg width="16" height="17" viewBox="0 0 16 17" fill="none" xmlns="http://www.w3.org/2000/svg">
<path d="M7.31915 8.5C7.31915 8.87602 7.62398 9.18085 8 9.18085C8.37602 9.18085 8.68085 8.87602 8.68085 8.5C8.68085 8.12398 8.37602 7.81915 8 7.81915C7.62398 7.81915 7.31915 8.12398 7.31915 8.5Z" fill="#333333"/>
<path fill-rule="evenodd" clip-rule="evenodd" d="M8 0.5C8.28202 0.5 8.51064 0.728621 8.51064 1.01064V3.22366C9.44088 3.22597 10.0519 3.2462 10.5715 3.41501C11.7633 3.80227 12.6977 4.73669 13.085 5.92853C13.2538 6.44808 13.274 7.05912 13.2763 7.98936H15.4894C15.7714 7.98936 16 8.21798 16 8.5C16 8.78202 15.7714 9.01064 15.4894 9.01064H13.2763C13.274 9.94088 13.2538 10.5519 13.085 11.0715C12.6977 12.2633 11.7633 13.1977 10.5715 13.585C10.0519 13.7538 9.44088 13.774 8.51064 13.7763V15.9894C8.51064 16.2714 8.28202 16.5 8 16.5C7.71798 16.5 7.48936 16.2714 7.48936 15.9894V13.7763C6.55912 13.774 5.94808 13.7538 5.42853 13.585C4.23669 13.1977 3.30227 12.2633 2.91501 11.0715C2.7462 10.5519 2.72597 9.94088 2.72366 9.01064H0.510638C0.228621 9.01064 0 8.78202 0 8.5C0 8.21798 0.228621 7.98936 0.510638 7.98936H2.72366C2.72597 7.05912 2.7462 6.44808 2.91501 5.92853C3.30227 4.73669 4.23669 3.80227 5.42853 3.41501C5.94808 3.2462 6.55912 3.22597 7.48936 3.22366V1.01064C7.48936 0.728621 7.71798 0.5 8 0.5ZM6.29787 8.5C6.29787 9.44006 7.05994 10.2021 8 10.2021C8.94006 10.2021 9.70213 9.44006 9.70213 8.5C9.70213 7.55994 8.94006 6.79787 8 6.79787C7.05994 6.79787 6.29787 7.55994 6.29787 8.5Z" fill="#333333"/>
</svg>
